<?xml version="1.0" encoding="UTF-8" standalone="no"?>
<!-- Created with Inkscape (http://www.inkscape.org/) -->

<svg
   xmlns:dc="http://purl.org/dc/elements/1.1/"
   xmlns:cc="http://creativecommons.org/ns#"
   xmlns:rdf="http://www.w3.org/1999/02/22-rdf-syntax-ns#"
   xmlns:svg="http://www.w3.org/2000/svg"
   xmlns="http://www.w3.org/2000/svg"
   xmlns:sodipodi="http://sodipodi.sourceforge.net/DTD/sodipodi-0.dtd"
   xmlns:inkscape="http://www.inkscape.org/namespaces/inkscape"
   version="1.0"
   width="340.5"
   height="359"
   id="svg2"
   inkscape:version="0.48.4 r9939"
   sodipodi:docname="Kumamoto Kumamoto chapter.svg">
  <metadata
     id="metadata8">
    <rdf:RDF>
      <cc:Work
         rdf:about="">
        <dc:format>image/svg+xml</dc:format>
        <dc:type
           rdf:resource="http://purl.org/dc/dcmitype/StillImage" />
      </cc:Work>
    </rdf:RDF>
  </metadata>
  <sodipodi:namedview
     pagecolor="#ffffff"
     bordercolor="#666666"
     borderopacity="1"
     objecttolerance="10"
     gridtolerance="10"
     guidetolerance="10"
     inkscape:pageopacity="0"
     inkscape:pageshadow="2"
     inkscape:window-width="1280"
     inkscape:window-height="961"
     id="namedview6"
     showgrid="false"
     fit-margin-top="0"
     fit-margin-left="0"
     fit-margin-right="0"
     fit-margin-bottom="0"
     inkscape:zoom="1.2383333"
     inkscape:cx="179.73856"
     inkscape:cy="192.82436"
     inkscape:window-x="-4"
     inkscape:window-y="-4"
     inkscape:window-maximized="1"
     inkscape:current-layer="svg2" />
  <defs
     id="defs5" />
  <path
     inkscape:connector-curvature="0"
     d="M 179.5,0 C 80.416,0 -9.9999991e-6,80.41599 0,179.5 0,278.584 80.41599,358.99999 179.5,359 c 61.31208,0 115.4885,-30.7973 147.875,-77.75 8.20461,-10.19922 13.125,-23.15131 13.125,-37.25 0,-32.844 -26.656,-59.5 -59.5,-59.5 -20.06238,0 -37.81418,9.96056 -48.59375,25.1875 -6.28079,7.33378 -11.13317,12.12393 -12.65625,13.59375 C 209.15276,233.02805 195.0219,239 179.5,239 146.656,239 120,212.344 120,179.5 c 0,-32.844 26.656,-59.5 59.5,-59.5 15.57161,0 29.73598,6.0107 40.34375,15.8125 1.71595,1.80862 6.85893,7.32176 13.375,15.15625 l 3.9375,4.71875 C 248.03571,167.55069 263.64705,175 281,175 c 32.844,0 59.5,-26.656 59.5,-59.5 0,-11.12043 -3.05785,-21.5303 -8.375,-30.4375 C 300.46188,34.0239 243.93839,0 179.5,0 z"
     id="path2388"
     style="fill:#009933;fill-opacity:1;stroke:none" />
</svg>
