<?xml version="1.0" encoding="utf-8"?>
<!-- Generator: Adobe Illustrator 24.3.0, SVG Export Plug-In . SVG Version: 6.00 Build 0)  -->
<svg version="1.1" id="Layer_1" xmlns="http://www.w3.org/2000/svg" xmlns:xlink="http://www.w3.org/1999/xlink" x="0px" y="0px"
	 viewBox="0 0 294 95.9" style="enable-background:new 0 0 294 95.9;" xml:space="preserve">
<style type="text/css">
	.st0{fill:#FCFCFC;}
	.st1{opacity:0.7;fill:#FCFCFC;enable-background:new    ;}
</style>
<g id="Layer_1_1_">
</g>
<g id="Isolation_Mode">
	<g>
		<g>
			<g>
				<g>
					<path class="st0" d="M34.8,28.3c-2.5-0.6-4.7-1-6.6-2.9c-3.6-3.6-3.5-9.5,0.1-13.1c3.1-3.1,7.3-3.2,11.3-1.9
						c5.7,1.9,11.2,5.2,15.3,9.5c7.5,7.6,11.3,17.6,11.3,27.4c0,9.9-3.9,19.8-11.4,27.4c-6.3,6.3-14.1,9.9-22.3,11
						c-1.8,0.3-4.7,0.9-10.3,0.2c6,0.2,8.5-0.3,10-0.8C51.5,80,60.5,57.2,50.5,40.9C47.1,35.1,41.6,29.8,34.8,28.3z"/>
					<path class="st0" d="M35.5,64.2c0.4-5.1-0.9-10.2-3.8-14.4c-1.3-2-2.5-3.5-2.6-6.1c-0.1-2.2,0.8-4.3,2.3-5.9
						c3.2-3.2,8.5-3.1,11.8,0.3c0.6,0.6,0.9,1,1.4,1.8C46,41.7,48,46,49,49.6c2,7.6,0.7,15.3-3,21.5c-3.7,6.2-9.8,10.9-17.3,12.8
						c-6.3,1.5-12.7,0.8-18.2-1.7c-1.2-0.6-3.3-1.3-6.5-3.9c3.8,2.4,20.4,9.5,30.4-9.3C35.1,67.6,35.4,65.9,35.5,64.2z"/>
				</g>
			</g>
		</g>
	</g>
</g>
<g>
	<path class="st0" d="M98.8,62.7l-5.6-11.6h-4.1v11.6h-5.7v-29h11.4c5.9,0,9.4,4,9.4,8.9c0,4.1-2.5,6.6-5.3,7.6l6.5,12.5H98.8z
		 M94.4,38.7h-5.3v7.7h5.3c2.5,0,4.1-1.6,4.1-3.8C98.5,40.3,96.9,38.7,94.4,38.7z"/>
	<path class="st0" d="M109.6,37.8v-4.3h5.4v4.3H109.6z M109.7,62.7V41.5h5.3v21.2C115,62.7,109.7,62.7,109.7,62.7z"/>
	<path class="st0" d="M127.8,62.9c-3.3,0-6.4-0.4-9-3.1l3.5-3.5c1.8,1.8,4,2,5.7,2c1.8,0,3.7-0.6,3.7-2.2c0-1.1-0.6-1.8-2.2-2
		l-3.3-0.3c-3.8-0.4-6.2-2-6.2-5.9c0-4.4,3.9-6.8,8.2-6.8c3.3,0,6.1,0.6,8.1,2.5l-3.3,3.3c-1.2-1.1-3.1-1.4-4.9-1.4c-2.1,0-3,1-3,2
		c0,0.8,0.3,1.7,2.2,1.8l3.3,0.3c4.2,0.4,6.3,2.6,6.3,6.2C136.8,60.7,132.9,62.9,127.8,62.9z"/>
	<path class="st0" d="M154,62.7l-5.2-8.8l-2.2,2.5v6.3h-5.3v-29h5.3v16.4l7-8.7h6.4l-7.6,8.6l8.1,12.7C160.5,62.7,154,62.7,154,62.7
		z"/>
	<path class="st1" d="M187,62.7v-22l-7.9,17.4h-2.6l-8.1-17.5v22h-3.1v-29h3.1l9.4,20.6l9.2-20.6h3.1v29L187,62.7L187,62.7z"/>
	<path class="st1" d="M209.4,62.7v-1.9c-1.6,1.6-3.1,2.2-5.8,2.2c-2.8,0-4.4-0.5-5.7-1.8c-1-1-1.5-2.5-1.5-4.1
		c0-3.5,2.4-5.8,6.9-5.8h6v-1.9c0-2.9-1.5-4.4-5.1-4.4c-2.6,0-3.9,0.6-5,2.3l-2-1.8c1.8-2.3,3.8-3,7.1-3c5.4,0,8,2.3,8,6.7v13.6
		L209.4,62.7L209.4,62.7z M209.4,53.4h-5.6c-3,0-4.5,1.2-4.5,3.5s1.4,3.4,4.6,3.4c1.7,0,3.2-0.1,4.5-1.3c0.7-0.7,1-1.8,1-3.5V53.4z"
		/>
	<path class="st1" d="M232.9,61.2c-1.1,1.1-2.8,1.8-4.9,1.8c-2.2,0-4-0.5-5.7-2.6v11.3h-2.9v-29h2.9v2.4c1.6-2.1,3.5-2.6,5.7-2.6
		c2,0,3.8,0.7,4.9,1.8c2,2,2.4,5.4,2.4,8.5C235.4,55.8,235,59.1,232.9,61.2z M227.4,45c-4.4,0-5,3.7-5,7.7s0.7,7.7,5,7.7
		c4.4,0,5-3.7,5-7.7S231.8,45,227.4,45z"/>
	<path class="st1" d="M241.6,62.7v-3.8h3.8v3.8H241.6z"/>
	<path class="st1" d="M265.3,62.7v-2.2c-1.4,1.6-3.4,2.5-5.7,2.5c-2.2,0-4-0.7-5.2-1.9c-1.4-1.4-2-3.3-2-5.6V42.6h2.9v12.3
		c0,3.5,1.9,5.3,4.9,5.3s5-1.8,5-5.3V42.6h2.9v20L265.3,62.7L265.3,62.7z"/>
	<path class="st1" d="M281.9,62.9c-3.4,0-6-0.8-8.2-2.9l2-2c1.6,1.7,3.7,2.3,6.2,2.3c3.3,0,5.3-1.2,5.3-3.5c0-1.8-1-2.7-3.3-2.9
		l-3.3-0.3c-3.9-0.3-6-2.1-6-5.4c0-3.7,3.1-5.9,7.4-5.9c2.9,0,5.4,0.7,7.2,2.2l-1.9,1.9c-1.4-1.1-3.3-1.6-5.3-1.6
		c-2.9,0-4.5,1.3-4.5,3.3c0,1.7,1,2.7,3.5,2.9l3.2,0.3c3.5,0.3,5.9,1.7,5.9,5.4C290,60.7,286.7,62.9,281.9,62.9z"/>
</g>
</svg>
