<?xml version="1.0" encoding="utf-8"?>
<!-- Generator: Adobe Illustrator 24.3.0, SVG Export Plug-In . SVG Version: 6.00 Build 0)  -->
<svg version="1.1" id="Layer_1" xmlns="http://www.w3.org/2000/svg" xmlns:xlink="http://www.w3.org/1999/xlink" x="0px" y="0px"
	 viewBox="0 0 263.1 46" style="enable-background:new 0 0 263.1 46;" xml:space="preserve">
<style type="text/css">
	.st0{fill:#2D2B4A;}
	.st1{fill:#A51931;}
	.st2{fill:#A51D32;}
</style>
<g>
	<path class="st0" d="M54.4,20.4c0,3.6-2.3,5.6-4,6.3l4.5,8.8h-5.2l-4-8.3h-3.6v8.3h-4.7V13.4h9C51.7,13.4,54.4,16.4,54.4,20.4z
		 M45.5,24c2.3,0,3.8-1.3,3.8-3.4c0-2.3-1.6-3.6-3.8-3.6h-3.8v7H45.5z"/>
	<path class="st0" d="M60.3,11.6c1.4,0,2.5,0.9,2.5,2.3s-1.1,2.3-2.5,2.3s-2.5-0.9-2.5-2.3S58.9,11.6,60.3,11.6z M58,18.2h4.7v17.5
		H58V18.2z"/>
	<path class="st0" d="M73.4,17.9c4.1,0,6.7,2,6.7,5.4H76c-0.2-1.1-0.7-2.2-2.7-2.2c-1.6,0-2.7,0.7-2.7,2c0,1.6,2.5,2,4.5,2.3
		c3.2,0.5,5.4,1.8,5.4,4.9c0,3.6-2.9,5.8-7.6,5.8s-7.2-2.2-7.2-5.2h4.5c0.2,1.3,1.3,2.2,3.1,2.2c2,0,2.9-0.9,2.9-2
		c0-1.6-2.2-1.8-4.3-2.3c-3.1-0.7-5.6-1.8-5.6-5C66.2,19.5,69.7,17.9,73.4,17.9z"/>
	<path class="st0" d="M88.4,35.7h-4.7V12.3h4.7v13.1h0.2l5.4-7h5.2L92.9,26l6.7,9.9h-5.5l-4.9-7.2l-1.1,1.4v5.6H88.4z"/>
	<path class="st0" d="M101.7,35.7V13.4h4.9l6.1,13.9h0.2l6.1-13.9h4.9v22.3h-4.3V21.3h-0.2l-5,11.3h-2.9l-5.3-11.5H106v14.4h-4.3
		V35.7z"/>
	<path class="st0" d="M133.2,35.9c-3.4,0-5.8-2-5.8-5.2c0-3.1,2.2-5.2,6.1-5.2h4.1v-1.6c0-1.6-1.1-2.5-2.7-2.5
		c-1.6,0-2.7,0.9-2.7,2.2h-4.3c0.2-2.9,2-5.6,7.2-5.6c4,0,7.2,1.8,7.2,5.9v11.7H138v-2.2h-0.2C137.1,34.8,135.7,35.9,133.2,35.9z
		 M137.9,29.9v-1.8h-3.1c-1.8,0-2.7,0.9-2.7,2.2c0,1.6,1.3,2.3,2.7,2.3C136.4,32.6,137.9,31.5,137.9,29.9z"/>
	<path class="st0" d="M151.2,33H151v8.3h-4.7v-23h4.5V21h0.2c0.9-1.6,2.7-2.9,5-2.9c3.8,0,6.5,2.9,6.5,8.1v1.4
		c0,5.2-2.7,8.1-6.5,8.1C153.7,35.9,151.9,34.8,151.2,33z M157.8,27.4v-1.1c0-3.1-1.3-4.7-3.4-4.7s-3.6,1.8-3.6,4.7v1.1
		c0,3.1,1.4,4.7,3.6,4.7C156.4,32.3,157.8,30.6,157.8,27.4z"/>
</g>
<path class="st1" d="M19,5c6.4,0,11.9,4.8,12.9,11.1c0.4,2.7-0.3,5.2-1.3,7.7c-1.8,4.2-4.3,7.9-6.8,11.6c-1.1,1.6-2.3,3.2-3.5,4.8
	c-0.8,1-1.7,1-2.4,0c-3.5-4.5-6.7-9.2-9.4-14.3c-1.1-2-1.9-4.1-2.3-6.4c-0.6-3.8,0.5-7.2,3-10.1C11.7,6.4,14.9,5,19,5z M29.7,17.8
	C29.8,11.8,25,7.1,19.1,7c-6,0-10.8,4.8-10.8,10.6c0,6,4.7,10.8,10.7,10.9C24.9,28.5,29.7,23.7,29.7,17.8z"/>
<path class="st0" d="M20.5,26.4c2.6-1,4.3-2.8,4.7-5.6c0.4-2.6-0.6-4.7-2.6-6.4c-0.7-0.6-1.6-0.8-2.5-1.1s-1.4-1.1-1.4-2
	s0.7-1.7,1.5-2c0.6-0.2,1.2-0.1,1.8,0.1c3.3,1.2,5.7,4.3,5.9,7.8c0.2,3.8-1.8,7.1-5.2,8.6c-0.6,0.3-1.3,0.5-2,0.6
	C20.7,26.6,20.6,26.6,20.5,26.4z"/>
<path class="st0" d="M14.6,25.5c0.3-0.1,0.5,0,0.7,0c2,0.5,3.6-0.2,4.8-1.8c1.2-1.6,1.1-3.3,0.2-4.9c-0.1-0.3-0.3-0.5-0.5-0.7
	c-0.6-1-0.4-2,0.4-2.6c0.9-0.6,2-0.4,2.7,0.6c0.6,0.8,1,1.8,1.2,2.8c0.6,3.1-1.2,6.8-5.3,7.5C17.4,26.6,16,26.3,14.6,25.5z"/>
<g>
	<path class="st2" d="M251.2,36.6c-1.7,0-3-0.7-4-2s-1.4-2.9-1.4-5v-0.4c0-2.2,0.5-3.9,1.4-5.2c1-1.3,2.3-2,4-2
		c1.2,0,2.2,0.3,2.9,0.8c0.4,0.3,0.7,0.6,1,0.9v-7.1h1.6v19.7h-1.6v-1.1c-0.3,0.3-0.6,0.5-1,0.8C253.1,36.4,252.2,36.6,251.2,36.6z
		 M251.1,23.7c-1.2,0-2,0.5-2.7,1.5s-1,2.5-1,4.1v0.1c0,1.6,0.3,3,1,4c0.6,0.9,1.4,1.4,2.7,1.4c1,0,1.9-0.3,2.5-0.7
		c0.6-0.5,1.1-1.1,1.4-1.7v-5.9c-0.3-0.8-0.7-1.5-1.3-2C253.1,24,252.2,23.7,251.1,23.7z"/>
	<polygon class="st2" points="175.3,36.1 173.7,36.1 173.7,19.3 167.3,19.3 167.3,17.7 181.7,17.7 181.7,19.3 175.3,19.3 	"/>
	<path class="st2" d="M185.1,36.2h-1.6V16.5h1.6v7.2c0.3-0.4,0.7-0.7,1-0.9c0.9-0.6,1.9-0.9,3.1-0.9c1.6,0,2.7,0.5,3.5,1.5
		s1.1,2.3,1.1,4.3v8.4h-1.7v-8.4c0-1.6-0.3-2.7-0.8-3.3c-0.6-0.7-1.5-0.8-2.1-0.8c-1.3,0-2.2,0.4-2.8,1.1c-0.7,0.9-1.1,1.9-1.3,3
		V36.2z"/>
	<path class="st2" d="M200.3,36.4c-1.4,0-2.5-0.4-3.2-1.2c-0.8-0.9-1.1-1.8-1.1-3c0-1.3,0.6-2.3,1.7-3.1c1.1-0.8,2.5-1.2,4.2-1.2
		h3.2v-1.4c0-1-0.3-1.6-0.8-2.1c-0.6-0.5-1.5-0.8-2.6-0.8s-1.9,0.2-2.5,0.8c-0.6,0.5-0.9,1.1-0.9,1.8v0.5h-1.5v-0.6
		c0-1.3,0.5-2.3,1.4-3c0.8-0.7,2-1.1,3.6-1.1c1.5,0,2.7,0.4,3.6,1.2c1,0.8,1.5,2,1.5,3.4V33c0,0.5,0,0.8,0.1,1.2
		c0,0.2,0.1,0.3,0.1,0.5c0,0.3,0.1,0.5,0.2,0.7l0.4,0.7h-1.9l-0.2-0.9c-0.1-0.3-0.1-0.6-0.1-0.8c-0.4,0.5-1,0.9-1.7,1.3
		C202.8,36.1,201.7,36.4,200.3,36.4z M201.9,29.6c-1.2,0-2.3,0.3-3.1,0.8c-0.5,0.4-1.2,1-1.2,1.9c0,0.8,0.2,1.3,0.7,1.7
		c0.6,0.6,1.1,0.8,2,0.8c1.2,0,2.2-0.3,3-0.8c0.7-0.5,1.3-1.1,1.8-2.1v-2.3H201.9z M205.7,32.8h0.2v-0.3
		C205.8,32.6,205.8,32.7,205.7,32.8z"/>
	<path class="st2" d="M211.7,36.2h-1.6v-14h1.6V36.2z M211.7,19.1h-1.6v-2.6h1.6V19.1z"/>
	<rect x="215.1" y="16.5" class="st2" width="1.6" height="19.7"/>
	<path class="st2" d="M223.4,36.4c-1.4,0-2.5-0.4-3.2-1.2c-0.8-0.9-1.1-1.8-1.1-3c0-1.3,0.6-2.3,1.7-3.1c1.1-0.8,2.5-1.2,4.2-1.2
		h3.2v-1.4c0-1-0.3-1.6-0.8-2.1c-0.6-0.5-1.5-0.8-2.6-0.8s-1.9,0.2-2.5,0.8c-0.6,0.5-0.9,1.1-0.9,1.8v0.5h-1.5v-0.6
		c0-1.3,0.5-2.3,1.4-3c0.8-0.7,2-1.1,3.6-1.1c1.5,0,2.7,0.4,3.6,1.2c1,0.8,1.5,2,1.5,3.4V33c0,0.5,0,0.8,0.1,1.2
		c0,0.2,0.1,0.3,0.1,0.5c0,0.3,0.1,0.5,0.2,0.7l0.4,0.7h-1.9l-0.2-0.9c-0.1-0.3-0.1-0.6-0.1-0.8c-0.4,0.5-1,0.9-1.7,1.3
		C225.9,36.1,224.8,36.4,223.4,36.4z M225,29.6c-1.2,0-2.3,0.3-3.1,0.8c-0.5,0.4-1.2,1-1.2,1.9c0,0.8,0.2,1.3,0.7,1.7
		c0.6,0.7,1.4,0.8,2,0.8c1.2,0,2.2-0.3,3-0.8c0.7-0.5,1.3-1.1,1.8-2.1v-2.3H225z M228.8,32.8h0.2v-0.3
		C228.9,32.6,228.9,32.7,228.8,32.8z"/>
	<path class="st2" d="M234.7,36.2h-1.6v-14h1.4l0.1,1.6c0.3-0.3,0.6-0.6,0.9-0.9c1-0.6,2-0.9,3.1-0.9c1.6,0,2.8,0.5,3.6,1.5
		s1.2,2.5,1.2,4.5v8h-1.6v-8c0-1.7-0.3-2.9-0.9-3.4c-0.5-0.6-1.3-1-2.2-1c-1.3,0-2.2,0.4-2.8,1.1c-0.5,0.6-1.1,1.5-1.2,2.9V36.2z"/>
</g>
</svg>
