<?xml version="1.0" encoding="utf-8"?>
<!-- Generator: Adobe Illustrator 23.0.0, SVG Export Plug-In . SVG Version: 6.00 Build 0)  -->
<svg version="1.1" id="Layer_1" xmlns="http://www.w3.org/2000/svg" xmlns:xlink="http://www.w3.org/1999/xlink" x="0px" y="0px"
	 viewBox="0 0 263.1 46" style="enable-background:new 0 0 263.1 46;" xml:space="preserve">
<style type="text/css">
	.st0{fill:#1E7FB8;}
	.st1{fill:#42A4CB;}
	.st2{fill:#6FB6D2;}
	.st3{fill:#9EC8DD;}
</style>
<g>
	<path class="st0" d="M7,9.5c-7.1,8.9-5.6,21.9,3.3,29s21.9,5.6,29-3.3c0.4-0.6,0.8-1.2,1.3-1.8c-7.3,7.5-19.2,8.4-27.6,1.7
		C5.3,28.8,3.2,18.2,7.4,9.6C7.5,9.4,7.1,9.2,7,9.5L7,9.5z"/>
	<g>
		<path class="st1" d="M18.3,3.6C9.5,7.2,5.3,17.4,9,26.1S22.8,39,31.6,35.4c0.7-0.2,1.4-0.6,2-1c-8.2,2.3-17.1-1.8-20.5-10
			C9.9,17,12.4,8.7,18.6,4.1C18.8,3.8,18.5,3.5,18.3,3.6L18.3,3.6z"/>
	</g>
	<g>
		<path class="st2" d="M30.3,4c-7.7-1.2-15,3.9-16.5,11.5c-1.5,7.9,3.9,15.5,11.8,16.8l0.1,0.1c0.4,0.1,0.5-0.4,0.2-0.5
			c-5.6-2.7-9-8.9-8-15.3S24.3,5.4,30.6,4.7c0.4-0.1,0.3-0.6,0-0.6C30.5,3.9,30.4,4,30.3,4z"/>
	</g>
	<g>
		<path class="st3" d="M40.4,10.6c-4.3-4.7-11.7-5.1-16.5-1c-5.7,4.8-5.6,13.7,0.1,18.5c0.2,0.2,0.3,0.2,0.5,0.4l0,0
			c-3-4.8-2.3-11.1,1.9-15.2c3.7-3.5,9.1-4.1,13.5-2C40.3,11.5,40.8,11,40.4,10.6L40.4,10.6z"/>
	</g>
</g>
<g>
	<path class="st0" d="M66.3,18.3c0,3.6-2.3,5.6-4,6.3l4.5,8.8h-5.2l-4-8.3H54v8.3h-4.7V11.3h9C63.6,11.3,66.3,14.3,66.3,18.3z
		 M57.4,21.9c2.3,0,3.8-1.3,3.8-3.4c0-2.3-1.6-3.6-3.8-3.6h-3.8v7H57.4z"/>
	<path class="st0" d="M72.2,9.5c1.4,0,2.5,0.9,2.5,2.3s-1.1,2.3-2.5,2.3s-2.5-0.9-2.5-2.3C69.7,10.4,70.8,9.5,72.2,9.5z M69.9,16.1
		h4.7v17.5h-4.7V16.1z"/>
	<path class="st0" d="M85.3,15.8c4.1,0,6.7,2,6.7,5.4h-4.1c-0.2-1.1-0.7-2.2-2.7-2.2c-1.6,0-2.7,0.7-2.7,2c0,1.6,2.5,2,4.5,2.3
		c3.2,0.5,5.4,1.8,5.4,4.9c0,3.6-2.9,5.8-7.6,5.8c-4.7,0-7.2-2.2-7.2-5.2h4.5c0.2,1.3,1.3,2.2,3.1,2.2c2,0,2.9-0.9,2.9-2
		c0-1.6-2.2-1.8-4.3-2.3c-3.1-0.7-5.6-1.8-5.6-5C78.1,17.4,81.6,15.8,85.3,15.8z"/>
	<path class="st0" d="M100.3,33.6h-4.7V10.2h4.7v13.1h0.2l5.4-7h5.2l-6.3,7.6l6.7,9.9H106l-4.9-7.2l-1.1,1.4v5.6H100.3z"/>
	<path class="st0" d="M113.6,33.6V11.3h4.9l6.1,13.9h0.2l6.1-13.9h4.9v22.3h-4.3V19.2h-0.2l-5,11.3h-2.9L118.1,19h-0.2v14.4h-4.3
		V33.6z"/>
	<path class="st0" d="M145.1,33.8c-3.4,0-5.8-2-5.8-5.2c0-3.1,2.2-5.2,6.1-5.2h4.1v-1.6c0-1.6-1.1-2.5-2.7-2.5
		c-1.6,0-2.7,0.9-2.7,2.2h-4.3c0.2-2.9,2-5.6,7.2-5.6c4,0,7.2,1.8,7.2,5.9v11.7h-4.3v-2.2h-0.2C149,32.7,147.6,33.8,145.1,33.8z
		 M149.8,27.8V26h-3.1c-1.8,0-2.7,0.9-2.7,2.2c0,1.6,1.3,2.3,2.7,2.3C148.3,30.5,149.8,29.4,149.8,27.8z"/>
	<path class="st0" d="M163.1,30.9h-0.2v8.3h-4.7v-23h4.5v2.7h0.2c0.9-1.6,2.7-2.9,5-2.9c3.8,0,6.5,2.9,6.5,8.1v1.4
		c0,5.2-2.7,8.1-6.5,8.1C165.6,33.8,163.8,32.7,163.1,30.9z M169.7,25.3v-1.1c0-3.1-1.3-4.7-3.4-4.7s-3.6,1.8-3.6,4.7v1.1
		c0,3.1,1.4,4.7,3.6,4.7C168.3,30.2,169.7,28.5,169.7,25.3z"/>
	<path class="st0" d="M178.5,28.5c0,1.8,1.4,3.4,3.8,3.4c2.3,0,4.1-1.3,4.1-4.5V11.1h2.2v16c0,4.5-2.5,6.7-6.1,6.7
		c-3.8,0-5.8-2.5-5.8-5.2H178.5z"/>
	<path class="st0" d="M198.3,33.8c-3.2,0-5.6-2-5.6-5.2c0-2.9,2-4.9,5.9-4.9h4.9v-2c0-2.5-1.4-3.8-4.1-3.8c-2.5,0-3.8,1.3-4,3.1h-2
		c0.2-2.9,2.2-4.9,6.1-4.9c3.6,0,5.9,2,5.9,5.4v11.9h-2v-2.3l0,0C202.8,32.3,201.2,33.8,198.3,33.8z M203.6,27.8v-2.3h-4.7
		c-2.7,0-3.8,1.3-3.8,3.1c0,2.2,1.8,3.4,4,3.4C201.4,32,203.6,30.3,203.6,27.8z"/>
	<path class="st0" d="M212.9,30.9L212.9,30.9v8.5h-2V16.5h2v2.7l0,0c0.7-1.4,2.5-3.1,5.2-3.1c3.8,0,6.7,2.9,6.7,7.7V26
		c0,4.9-2.9,7.7-6.7,7.7C215.3,33.8,213.6,32.3,212.9,30.9z M222.6,25.8V24c0-3.8-2-5.9-4.9-5.9c-3.2,0-5,2.7-5,5.9v1.8
		c0,3.6,2,6.1,5,6.1C220.6,32,222.6,29.8,222.6,25.8z"/>
	<path class="st0" d="M233.8,33.8c-3.2,0-5.6-2-5.6-5.2c0-2.9,2-4.9,5.9-4.9h4.9v-2c0-2.5-1.4-3.8-4.1-3.8c-2.5,0-3.8,1.3-4,3.1h-2
		c0.2-2.9,2.2-4.9,6.1-4.9c3.6,0,5.9,2,5.9,5.4v11.9h-2v-2.3l0,0C238.3,32.3,236.7,33.8,233.8,33.8z M239,27.8v-2.3h-4.7
		c-2.7,0-3.8,1.3-3.8,3.1c0,2.2,1.8,3.4,4,3.4C236.8,32,239,30.3,239,27.8z"/>
	<path class="st0" d="M246.2,16.5h2V19l0,0c0.5-1.3,2.3-2.9,5.2-2.9c3.4,0,6.1,2.2,6.1,6.3v11h-2V22.6c0-2.9-1.8-4.7-4.5-4.7
		c-3.2,0-4.7,2.5-4.7,5v10.4h-2V16.5H246.2z"/>
</g>
</svg>
