<?xml version="1.0" encoding="utf-8"?>
<!-- Generator: Adobe Illustrator 26.0.3, SVG Export Plug-In . SVG Version: 6.00 Build 0)  -->
<svg version="1.1" id="Layer_1" xmlns="http://www.w3.org/2000/svg" xmlns:xlink="http://www.w3.org/1999/xlink" x="0px" y="0px"
	 viewBox="0 0 263.1 46" style="enable-background:new 0 0 263.1 46;" xml:space="preserve">
<style type="text/css">
	.st0{fill:#FFFFFF;}
	.st1{fill:#99C9E5;}
	.st2{fill:#62B9DF;}
	.st3{fill:#00AADA;}
	.st4{fill:#0093CF;}
	.st5{fill:#FCFCFC;}
</style>
<g>
	<circle class="st0" cx="23.3" cy="22.5" r="22.1"/>
	<g>
		<g>
			<path class="st1" d="M33.4,8.5c-1.4-0.2-2.7-0.2-3.9,0.1c0,0-0.1,0-0.1,0.1c-0.9,0.8-1.6,2.1-2.5,3c0.4-0.3,0.9-0.5,1.3-0.7
				c1.3-0.6,2.8-1,4.2-1.1c0.7-0.2,1.5-0.2,2.1,0.4l0,0l0,0c0,0-0.1,0-0.1-0.1c-0.5-0.3-1-0.4-1.6-0.3c-0.2,0-0.3,0.1-0.5,0.2
				c-1,0.4-1.4,1.8-0.7,2.7s2,0.8,2.9,0.5c0.7-0.2,1.4-0.6,2.3-0.6c1.5-0.1,3,0.6,4.1,1.6c-0.2-0.5-0.4-1-0.7-1.4
				C38.9,10.4,36.1,8.9,33.4,8.5z"/>
			<path class="st1" d="M23.6,12.5c-1.1,1.5-1.9,3.3-2.3,5.2c-0.2,0.7-0.2,1.4-0.2,2.1c0,0.2,0.1,0.5,0.1,0.7c0.3-3.2,2-6.1,4.5-8.1
				c-0.1,0.1-0.3,0.1-0.4,0.2C24.6,12.8,24,12.7,23.6,12.5z"/>
		</g>
		<g>
			<path class="st2" d="M20.4,29.2L20.4,29.2L20.4,29.2z"/>
			<path class="st2" d="M37.3,8.2L37.3,8.2L37.3,8.2z"/>
			<path class="st2" d="M17.7,16.1c-0.6,0.6-1.4,0.9-2.2,0.9c-0.1,1-0.1,2,0.1,3c0.2,1.8,0.8,3.5,1.5,5.1c0.4,0.8,0.8,1.6,1.4,2.2
				c0.2,0.3,0.5,0.5,0.9,0.7C17.1,24.5,16.6,20,17.7,16.1z"/>
			<path class="st2" d="M20.1,8c-0.2,0.1-0.3,0.3-0.5,0.4c0,0.1-0.1,0.2-0.1,0.4c-0.4,1.3-0.2,2.7-0.3,4c0.9-1.5,2-3,3.3-4.1
				c0.4-0.7,1.2-1.2,2.4-1.2l0,0l0,0h-0.1c-0.7,0-1.4,0.4-1.9,0.9c-0.6,0.6-0.8,1.5-0.5,2.4c0.2,0.5,0.5,0.8,0.9,1.1
				c0.1,0,0.1,0.1,0.2,0.1s0.2,0.1,0.3,0.1c0.4,0.1,0.9,0.1,1.3,0c1.6-0.5,2.2-2,3.2-3.3c0.1-0.2,0.3-0.3,0.4-0.5
				C28.8,8.2,28.9,8.1,29,8c0.1-0.1,0.1-0.1,0.2-0.1c1.5-1.1,3.5-1.5,5.5-1.2C33.2,6,31.7,5.3,30,5C26.5,4.6,22.8,5.8,20.1,8z"/>
		</g>
		<g>
			<path class="st3" d="M24.6,36.4L24.6,36.4L24.6,36.4z"/>
			<path class="st3" d="M12.9,25.4c-0.5,0.8-1.3,1.3-2.2,1.5c0.6,1.2,1.4,2.3,2.3,3.2c1.5,1.7,3.3,3.1,5.2,4.3c1,0.6,2,1.1,3,1.3
				c0.5,0.1,1.1,0.1,1.7,0.2C18.3,34,14.6,30.1,12.9,25.4z"/>
			<path class="st3" d="M9.8,13.5c0,0.7,0.1,1.3,0.3,1.9c0.4,1.1,1,2.1,1.7,3.1c0-1.6,0.2-3.3,0.7-4.8c0-1.1,0.6-2.1,1.6-2.8V11
				c0,0,0,0-0.1,0.1c-0.7,0.6-1.3,1.4-1.4,2.3c0,0.2,0,0.4,0,0.6c0.1,1.3,1.1,2.4,2.4,2.6c0.1,0,0.2,0,0.3,0c0.1,0,0.2,0,0.3,0
				c0.3,0,0.5,0,0.8-0.1c1.1-0.3,1.8-1.4,2.1-2.5c0.4-1.6,0.1-3.1,0.3-4.7c0-0.2,0.1-0.4,0.1-0.6l0,0c0-0.3,0.1-0.5,0.2-0.7
				c0.8-2.1,2.7-3.7,4.7-4.7c0.1-0.1,0.3-0.1,0.4-0.2c-2.3,0.1-4.5,0.4-6.6,1.5C14,6.4,11.3,9.8,9.8,13.5z"/>
		</g>
		<path class="st4" d="M10.9,33.2c-1.4-1.7-2.7-3.5-3.5-5.6c-0.2-0.6-0.5-1.2-0.7-1.9c-0.5-0.6-0.9-1.4-1-2.3
			c-0.1-0.8,0.1-1.5,0.3-2.2l0,0l0,0c0,0,0,0,0,0.1c-0.5,1.3-0.4,2.9,0.6,4c0,0,0,0,0,0.1c0.8,1,2.1,1.5,3.3,1.3c0.1,0,0.2,0,0.3,0
			s0.2,0,0.3-0.1c0.7-0.2,1.3-0.6,1.8-1.1c0.2-0.2,0.3-0.4,0.4-0.6c0,0,0-0.1,0.1-0.1c0-0.1,0-0.1,0.1-0.2c0.6-1.6,0-3.5-0.9-5
			c0,0,0-0.1-0.1-0.1l0,0c0,0,0,0,0-0.1c-1.2-1.7-2.1-3.1-2.5-4.7c-0.1-0.2-0.1-0.4-0.1-0.7c0-0.2-0.1-0.5-0.1-0.7
			c0-0.7,0-1.5,0.2-2.4c0.4-1.8,1-3.6,2.1-5.1C9,7.5,6.8,9.6,5.3,12.2c-2,3.7-2.7,8-2.3,12.1C3.7,33,10.2,39.8,18.6,42
			c4.9,1.3,10.4,1.3,14.9-1.2C25.4,43.1,16.1,39.5,10.9,33.2z"/>
	</g>
</g>
<g>
	<path class="st5" d="M52.8,25.5v7.9h-4V13.6h7.5c2.3,0,4,0.5,5.3,1.5c1.3,1,1.9,2.5,1.9,4.3c0,1-0.3,1.9-0.8,2.6s-1.3,1.3-2.4,1.8
		c1.2,0.3,2,0.9,2.5,1.7s0.8,1.8,0.8,3V30c0,0.6,0.1,1.1,0.2,1.7c0.1,0.6,0.4,1.1,0.8,1.3v0.3h-4.1c-0.4-0.3-0.6-0.8-0.7-1.5
		s-0.2-1.3-0.2-1.9v-1.4c0-1-0.3-1.8-0.8-2.3s-1.3-0.8-2.3-0.8h-3.7V25.5z M52.8,22.4h3.4c1.1,0,1.9-0.2,2.5-0.7
		c0.5-0.5,0.8-1.2,0.8-2.1s-0.3-1.6-0.8-2.2c-0.5-0.5-1.4-0.8-2.4-0.8h-3.5V22.4z"/>
	<path class="st5" d="M71.1,15.2h-4v-3h4V15.2z M71.1,33.4h-4V18.7h4V33.4z"/>
	<path class="st5" d="M82.3,29.4c0-0.4-0.2-0.8-0.6-1.1s-1.2-0.6-2.3-0.8c-1.7-0.4-3.1-0.9-3.9-1.6c-1-0.8-1.5-1.7-1.5-2.9
		c0-1.3,0.5-2.3,1.6-3.2c1.1-0.9,2.5-1.3,4.3-1.3c1.9,0,3.4,0.4,4.5,1.3s1.6,2,1.6,3.3v0.1h-3.8c0-0.6-0.2-1.1-0.6-1.4
		c-0.4-0.4-0.9-0.6-1.7-0.6c-0.6,0-1.2,0.2-1.5,0.5c-0.4,0.3-0.6,0.7-0.6,1.2s0.2,0.8,0.6,1.1c0.4,0.3,1.2,0.5,2.3,0.8
		c1.8,0.4,3.2,0.9,4,1.6c0.9,0.7,1.3,1.7,1.3,2.9c0,1.3-0.6,2.4-1.7,3.2s-2.6,1.3-4.5,1.3c-2,0-3.5-0.5-4.6-1.5s-1.7-2.1-1.6-3.4
		v-0.1h3.6c0,0.8,0.3,1.4,0.8,1.7c0.5,0.4,1.1,0.5,1.9,0.5c0.7,0,1.3-0.1,1.7-0.4C82.1,30.3,82.3,29.9,82.3,29.4z"/>
	<path class="st5" d="M93.8,27.3h-1.1v6.2h-4V12.2h4v12h1l3.4-5.5h4.6L97,25.4l5.4,8.1h-4.6L93.8,27.3z"/>
	<path class="st5" d="M109.1,13.6l5,14.6h0.1l5.1-14.6h5.2v19.8h-4v-5.9l0.4-8.8h-0.1l-5.3,14.7h-2.7l-5.3-14.6h-0.1l0.4,8.7v5.9h-4
		V13.6H109.1z"/>
	<path class="st5" d="M136.6,33.4c-0.1-0.3-0.3-0.7-0.4-1.1c-0.1-0.4-0.2-0.8-0.2-1.1c-0.4,0.7-0.9,1.3-1.6,1.8
		c-0.7,0.5-1.5,0.7-2.4,0.7c-1.5,0-2.7-0.4-3.6-1.2c-0.8-0.8-1.3-1.9-1.3-3.2c0-1.4,0.6-2.6,1.7-3.4c1.1-0.8,2.7-1.2,4.9-1.2h2.2
		v-1.2c0-0.7-0.2-1.3-0.6-1.6s-0.9-0.6-1.6-0.6c-0.6,0-1.1,0.2-1.5,0.5c-0.3,0.3-0.5,0.7-0.5,1.3h-3.8V23c-0.1-1.2,0.5-2.3,1.6-3.2
		c1.1-0.9,2.6-1.4,4.5-1.4c1.8,0,3.2,0.4,4.3,1.3s1.6,2.2,1.6,3.8v6.1c0,0.7,0.1,1.3,0.2,1.9c0.1,0.6,0.3,1.2,0.5,1.8h-4V33.4z
		 M133,30.8c0.7,0,1.3-0.2,1.9-0.5c0.5-0.3,0.9-0.7,1.1-1.2V27h-2.2c-0.8,0-1.5,0.2-1.9,0.6c-0.4,0.4-0.7,0.9-0.7,1.5
		c0,0.5,0.2,0.9,0.5,1.2C132,30.6,132.4,30.8,133,30.8z"/>
	<path class="st5" d="M156.2,26.5c0,2.2-0.5,3.9-1.5,5.3c-1,1.3-2.4,2-4.2,2c-0.8,0-1.5-0.1-2.1-0.4c-0.6-0.3-1.1-0.7-1.5-1.3v7.1
		h-4V18.7h3.6l0.2,1.7c0.4-0.6,1-1.1,1.6-1.5c0.6-0.3,1.3-0.5,2.1-0.5c1.8,0,3.2,0.7,4.2,2.1s1.5,3.3,1.5,5.6L156.2,26.5L156.2,26.5
		z M152.2,26.2c0-1.4-0.2-2.5-0.7-3.4s-1.2-1.3-2.1-1.3c-0.6,0-1.1,0.1-1.5,0.4c-0.4,0.2-0.8,0.6-1,1v6.5c0.2,0.4,0.6,0.7,1,1
		c0.4,0.2,0.9,0.3,1.6,0.3c1,0,1.7-0.4,2.1-1.1c0.5-0.8,0.7-1.8,0.7-3.1v-0.3H152.2z"/>
	<path class="st5" d="M173,15h-6.8v18.4h-1.6V15h-6.8v-1.4H173V15z"/>
	<path class="st5" d="M177.4,21.2c0.5-0.9,1.1-1.6,2-2.1s1.8-0.7,2.9-0.7c1.6,0,2.7,0.5,3.6,1.4c0.8,1,1.2,2.5,1.2,4.5v9.1h-1.6
		v-9.1c0-1.6-0.3-2.7-0.9-3.4c-0.6-0.7-1.5-1-2.6-1s-2,0.3-2.8,0.9c-0.7,0.6-1.3,1.4-1.7,2.3v10.4h-1.6V12.2h1.6L177.4,21.2
		L177.4,21.2z"/>
	<path class="st5" d="M200.6,33.4c-0.1-0.5-0.2-0.9-0.2-1.3c0-0.4-0.1-0.7-0.1-1.1c-0.5,0.8-1.3,1.4-2.2,1.9s-1.9,0.8-3.1,0.8
		c-1.4,0-2.5-0.4-3.3-1.1c-0.8-0.8-1.2-1.8-1.2-3.1c0-1.4,0.6-2.4,1.8-3.3c1.2-0.8,2.8-1.2,4.8-1.2h3.3v-1.8c0-1.1-0.3-1.9-1-2.5
		s-1.6-0.9-2.8-0.9c-1.1,0-2.1,0.3-2.8,0.9s-1.1,1.3-1.1,2.1h-1.5v-0.1c-0.1-1.1,0.4-2.1,1.5-2.9c1.1-0.9,2.4-1.3,4-1.3
		s2.9,0.4,3.9,1.2c1,0.8,1.5,2,1.5,3.6v7.2c0,0.5,0,1,0.1,1.5s0.2,1,0.3,1.5h-1.9V33.4z M195.3,32.3c1.2,0,2.2-0.3,3.1-0.8
		c0.9-0.5,1.5-1.2,1.9-2.1v-3.1H197c-1.5,0-2.7,0.3-3.5,0.9c-0.9,0.6-1.3,1.4-1.3,2.3c0,0.8,0.3,1.4,0.8,2
		C193.6,32,194.3,32.3,195.3,32.3z"/>
	<path class="st5" d="M208.1,14.5h-1.6v-2.3h1.6V14.5z M208.1,33.4h-1.6V18.7h1.6V33.4z"/>
	<path class="st5" d="M214.4,33.4h-1.6V12.2h1.6V33.4z"/>
	<path class="st5" d="M228.3,33.4c-0.1-0.5-0.2-0.9-0.2-1.3c0-0.4-0.1-0.7-0.1-1.1c-0.5,0.8-1.3,1.4-2.2,1.9s-1.9,0.8-3.1,0.8
		c-1.4,0-2.5-0.4-3.3-1.1c-0.8-0.8-1.2-1.8-1.2-3.1c0-1.4,0.6-2.4,1.8-3.3s2.8-1.2,4.8-1.2h3.3v-1.8c0-1.1-0.3-1.9-1-2.5
		s-1.6-0.9-2.8-0.9c-1.1,0-2.1,0.3-2.8,0.9s-1.1,1.3-1.1,2.1h-1.5v-0.1c-0.1-1.1,0.4-2.1,1.5-2.9c1.1-0.9,2.4-1.3,4-1.3
		s2.9,0.4,3.9,1.2c1,0.8,1.5,2,1.5,3.6v7.2c0,0.5,0,1,0.1,1.5s0.2,1,0.3,1.5h-1.9V33.4z M222.9,32.3c1.2,0,2.2-0.3,3.1-0.8
		c0.9-0.5,1.5-1.2,1.9-2.1v-3.1h-3.3c-1.5,0-2.7,0.3-3.5,0.9c-0.9,0.6-1.3,1.4-1.3,2.3c0,0.8,0.3,1.4,0.8,2
		C221.2,32,222,32.3,222.9,32.3z"/>
	<path class="st5" d="M235.4,18.7l0.2,2.6c0.5-0.9,1.1-1.6,1.9-2.1c0.8-0.5,1.8-0.7,2.8-0.7c1.6,0,2.8,0.5,3.6,1.5s1.3,2.5,1.3,4.6
		v9h-1.6v-9c0-1.7-0.3-2.9-0.9-3.6s-1.5-1.1-2.7-1.1c-1.1,0-2.1,0.3-2.8,0.9s-1.2,1.4-1.6,2.4v10.3H234V18.7H235.4z"/>
	<path class="st5" d="M248.8,26.2c0-2.4,0.5-4.2,1.5-5.6s2.4-2.1,4.2-2.1c1,0,1.9,0.2,2.7,0.7c0.8,0.4,1.4,1.1,1.9,1.9v-8.9h1.6
		v21.2h-1.4l-0.1-2.1c-0.5,0.8-1.1,1.4-1.9,1.8c-0.8,0.4-1.7,0.6-2.7,0.6c-1.8,0-3.1-0.7-4.1-2s-1.5-3.1-1.5-5.3v-0.2H248.8z
		 M250.4,26.5c0,1.8,0.4,3.2,1.1,4.3c0.7,1.1,1.8,1.6,3.2,1.6c1.1,0,1.9-0.2,2.6-0.7s1.2-1.1,1.6-2v-6.9c-0.4-0.9-0.9-1.6-1.6-2.1
		s-1.6-0.8-2.7-0.8c-1.4,0-2.5,0.6-3.2,1.8c-0.7,1.2-1.1,2.7-1.1,4.6v0.2H250.4z"/>
</g>
</svg>
