<?xml version="1.0" encoding="utf-8"?>
<!-- Generator: Adobe Illustrator 23.0.0, SVG Export Plug-In . SVG Version: 6.00 Build 0)  -->
<svg version="1.1" id="Layer_1" xmlns="http://www.w3.org/2000/svg" xmlns:xlink="http://www.w3.org/1999/xlink" x="0px" y="0px"
	 viewBox="0 0 190.4 46" style="enable-background:new 0 0 190.4 46;" xml:space="preserve">
<style type="text/css">
	.st0{fill:#FFFFFF;}
</style>
<g>
	<path class="st0" d="M24.4,26.8h-3.6v9.7h-6.6V9H25c3.3,0,5.8,0.7,7.6,2.2c1.8,1.4,2.8,3.5,2.8,6.1c0,1.9-0.4,3.5-1.2,4.7
		c-0.8,1.3-2,2.3-3.6,3.1l5.7,11.1v0.3h-7.1L24.4,26.8z M20.9,21.7H25c1.3,0,2.2-0.3,2.8-1c0.6-0.7,1-1.6,1-2.8s-0.3-2.1-1-2.8
		s-1.6-1-2.8-1h-4.2V21.7z"/>
	<path class="st0" d="M46.5,36.5h-6.6V9h6.6V36.5z"/>
	<path class="st0" d="M65.2,29.2c0-1-0.3-1.7-1-2.3s-1.9-1.1-3.6-1.7c-1.7-0.6-3.1-1.1-4.2-1.7c-3.6-1.7-5.3-4.1-5.3-7.2
		c0-1.5,0.4-2.9,1.3-4s2.1-2.1,3.8-2.7c1.6-0.6,3.4-1,5.5-1c2,0,3.7,0.4,5.3,1.1c1.6,0.7,2.8,1.7,3.6,3c0.9,1.3,1.3,2.8,1.3,4.5
		h-6.6c0-1.1-0.3-2-1-2.6c-0.7-0.6-1.6-0.9-2.8-0.9c-1.2,0-2.1,0.3-2.8,0.8c-0.7,0.5-1,1.2-1,2c0,0.7,0.4,1.3,1.1,1.9
		c0.8,0.6,2.1,1.2,4,1.8c1.9,0.6,3.5,1.3,4.7,2c3,1.7,4.4,4.1,4.4,7.1c0,2.4-0.9,4.3-2.7,5.7c-1.8,1.4-4.3,2.1-7.4,2.1
		c-2.2,0-4.2-0.4-6-1.2c-1.8-0.8-3.2-1.9-4.1-3.3c-0.9-1.4-1.4-3-1.4-4.8h6.6c0,1.5,0.4,2.6,1.1,3.3s2,1,3.7,1c1.1,0,2-0.2,2.6-0.7
		C64.9,30.7,65.2,30,65.2,29.2z"/>
	<path class="st0" d="M84.6,26.3l-2.7,3v7.2h-6.6V9h6.6v12.1l2.3-3.5L90.1,9h8.2L89,21.2l9.3,15.3h-7.8L84.6,26.3z"/>
	<path class="st0" d="M104.4,9l10.1,24.2h0.1L124.7,9h3v27.4h-2.2V24.4l0.2-12l-0.1,0l-10.2,24.2h-1.6l-10.2-24.1l-0.1,0l0.2,11.9
		v12.1h-2.2V9H104.4z"/>
	<path class="st0" d="M150,28.8h-12.6l-2.8,7.7h-2.3L142.7,9h2.1l10.3,27.4h-2.3L150,28.8z M138.2,26.8h11.1L143.8,12h-0.1
		L138.2,26.8z"/>
	<path class="st0" d="M161.6,25.1v11.4h-2.2V9h9.4c2.9,0,5.1,0.7,6.7,2.2c1.6,1.5,2.4,3.4,2.4,5.8c0,2.4-0.8,4.4-2.4,5.8
		c-1.6,1.5-3.8,2.2-6.7,2.2H161.6z M161.6,23.2h7.2c2.3,0,4-0.6,5.1-1.7c1.1-1.1,1.7-2.6,1.7-4.3c0-1.8-0.6-3.2-1.7-4.4
		c-1.1-1.2-2.8-1.7-5.1-1.7h-7.2V23.2z"/>
</g>
</svg>
